<svg xmlns="http://www.w3.org/2000/svg" width="400" height="400">
  <path fill="#5FA7DA" d="M864 36c-108.25 0-196 87.75-196 196s87.75 196 196 196 196-87.75 196-196S972.25 36 864 36zm144.13 114.73c-2.69 3.62-5.39 7.21-8.56 10.44a155.5 155.5 0 0 1-12.46 11.61c-2.7 2.22-4.35 5.04-4.46 8.61-.13 4.24-.31 8.47-.61 12.7a145.6 145.6 0 0 1-1.48 12.85 173.8 173.8 0 0 1-6.14 25.6 163.6 163.6 0 0 1-19.44 40.8 144.95 144.95 0 0 1-15.55 19.96 182.35 182.35 0 0 1-10.85 10.85 160.74 160.74 0 0 1-16.57 12.91c-5.49 3.74-11.37 6.81-17.26 9.84-7.17 3.68-14.72 6.4-22.38 8.84-8.76 2.8-17.72 4.6-26.85 5.64-3.98.45-7.98.8-11.97 1.23-.7.08-1.44 0-2.1.38l-5.54.02c-3.44 0-6.88-.02-10.31-.04-.36-.29-.8-.18-1.2-.2-1.48-.13-2.95-.17-4.42-.35a665.4 665.4 0 0 1-11.02-1.46 119.8 119.8 0 0 1-13.3-2.4 199.45 199.45 0 0 1-20.5-6.7 173.17 173.17 0 0 1-23.95-11.48c-1.31-.74-2.57-1.58-3.85-2.38v-.22c3.3.41 6.64.55 9.96.65a109.8 109.8 0 0 0 18.25-.97c5.03-.68 9.97-1.83 14.88-3.1a114.1 114.1 0 0 0 25.57-10.25c4.36-2.37 8.37-5.34 12.47-8.13l.83-.59c.2-.14.33-.32.27-.57-.06-.23-.28-.2-.46-.23l-.68-.03c-1.51-.1-3.03-.16-4.53-.33a43.02 43.02 0 0 1-10.67-2.63c-8.6-3.28-16.45-7.69-22.68-14.66a58.75 58.75 0 0 1-7.07-9.3c-2.02-3.45-3.56-7.1-5.2-10.73-.12-.27-.28-.55-.11-1.02 3.97.52 7.99.8 12.04.62 4.06-.18 8.13-.26 12.09-1.47-.15-.35-.38-.4-.6-.44-3.03-.6-5.85-1.8-8.67-3.02-3.38-1.44-6.77-2.9-9.8-5.02-12.22-8.56-20.05-20.1-23.42-34.66a60.6 60.6 0 0 1-1.33-10.12c-.05-.78-.36-1.56-.12-2.34.45-.14.75.15 1.08.3 2 .91 3.97 1.9 6.04 2.65 4.64 1.71 9.48 2.62 14.32 3.48.99.18 2 .1 3.03.05-.05-.2-.05-.29-.1-.33a1.9 1.9 0 0 0-.33-.29 39.61 39.61 0 0 1-8.52-7.46c-3.87-4.36-7.23-9.02-9.61-14.39-2.95-6.69-4.88-13.61-5.28-20.92a52.37 52.37 0 0 1 1.8-17.21c1.32-4.61 3.39-8.92 5.28-13.29l.1-.21c.15-.26.36-.27.54-.06.27.31.5.67.77.98 4.49 5.09 9.17 9.99 14.05 14.71.84.82 1.88 1.43 2.67 2.28a55.93 55.93 0 0 0 5.94 5.28 169.81 169.81 0 0 0 26.3 17.02c6.98 3.7 14.27 6.67 21.69 9.33 4.14 1.48 8.26 2.98 12.58 3.91 6.4 1.36 12.83 2.59 19.3 3.55 3.34.49 6.69.88 10.06.98 1.93.06 1.6.1 1.32-1.57a64.82 64.82 0 0 1-.65-15.62c.31-4.72 1.4-9.26 2.85-13.75 3.06-9.4 8.55-17.16 15.9-23.65 4.64-4.09 9.93-7.09 15.55-9.53a48.51 48.51 0 0 1 12.83-3.75c.68-.1 1.45-.04 2.03-.58h12.73c.34.36.82.35 1.25.44 1.63.33 3.28.61 4.9.99a57.47 57.47 0 0 1 25.7 13.63 6.22 6.22 0 0 0 3.2 1.61c1.59.28 3.1-.03 4.6-.39 6.95-1.68 13.6-4.18 20.12-7.09 3.1-1.39 6.26-2.72 9.16-4.54.24-.14.45-.41.8-.33.18.31 0 .59-.08.87a42.16 42.16 0 0 1-2.57 6.17c-4.68 9.15-11.06 16.78-19.62 22.55-.27.18-.61.3-.65.77.49.11.96.07 1.43-.04l6.44-1.38a149.81 149.81 0 0 0 21.74-6.54 2 2 0 0 1 1.1-.12v.22c-.91.66-1.39 1.68-2.04 2.56z"/>
  <path fill="#3B5A9D" d="M200 4C91.75 4 4 91.75 4 200s87.75 196 196 196 196-87.75 196-196S308.25 4 200 4zm75.12 99.56l-.81.01-26.49.06c-2.49 0-4.95.13-7.41.5a29.4 29.4 0 0 0-6.38 1.67 16.3 16.3 0 0 0-9.49 9.3 26.12 26.12 0 0 0-1.57 6.02 54.78 54.78 0 0 0-.49 7.79v32.18c0 .32.16.45.46.45l.75.01 48.63.01.98.03-.26 2.22-.82 6.31-.8 6.25-.82 6.31-.8 6.26-.95 7.3c-.31 2.41-.6 4.83-.92 7.24-.35 2.75-.72 5.49-1.08 8.23-.13.99-.1.99-1.13.99H223.09l-.6.1v131.08c-.02.16-.06.32-.07.45-.09.04-.12.07-.16.07-.1.02-.21.03-.31.03h-51.81c-.1 0-.21-.02-.31-.04l-.06-.03-.12-.12V214.03v-.75a4.3 4.3 0 0 0-.08-.53c-.38-.02-.72-.04-1.07-.04h-42.38l-1-.02v-51.13l1-.01H169c.2-.01.39-.05.66-.09v-.98c0-12.94-.02-25.88.02-38.81.01-2.48.19-4.96.39-7.42.24-2.82.66-5.62 1.21-8.4a69.04 69.04 0 0 1 5.39-16.64A55.16 55.16 0 0 1 193.3 68.6c8.76-6.63 18.72-10.27 29.5-11.87 1.52-.22 3.05-.38 4.58-.52 1.56-.15 3.12-.32 4.67-.33 4.37-.02 8.75.03 13.12.08 2.23.02 4.46.1 6.68.16a536.14 536.14 0 0 1 8.86.48c1.51.09 3.03.16 4.54.28 1.77.13 3.53.3 5.29.47 1.53.14 3.06.31 4.58.46v45.75z"/>
  <circle cx="-215.67" cy="293" r="196" fill="#3B5A9D"/>
</svg>
