<svg xmlns="http://www.w3.org/2000/svg" viewBox="0 90 612 612">
  <circle cx="153" cy="549" r="65.57"/>
  <path d="M368.2 614.57h-46.9c-8.21 0-15.1-6.33-15.63-14.53-7.13-109.35-94.6-196.6-203.71-203.7a15.62 15.62 0 0 1-14.53-15.64v-46.9a15.6 15.6 0 0 1 16.39-15.6c151 8.15 271.84 129.14 279.99 279.99a15.6 15.6 0 0 1-15.6 16.38z"/>
  <path d="M508.94 614.57h-46.9a15.66 15.66 0 0 1-15.6-15.08c-7.66-186.51-157.39-336.27-343.93-343.92a15.66 15.66 0 0 1-15.08-15.61v-46.9a15.6 15.6 0 0 1 16.1-15.62c229.27 8.23 412.84 192.88 421.03 421.03a15.6 15.6 0 0 1-15.62 16.1z"/>
</svg>
