<?xml version="1.0" encoding="utf-8"?>
<!-- Generator: Adobe Illustrator 16.0.0, SVG Export Plug-In . SVG Version: 6.00 Build 0)  -->
<!DOCTYPE svg PUBLIC "-//W3C//DTD SVG 1.1//EN" "http://www.w3.org/Graphics/SVG/1.1/DTD/svg11.dtd">
<svg version="1.1" id="Layer_1" xmlns="http://www.w3.org/2000/svg" xmlns:xlink="http://www.w3.org/1999/xlink" x="0px" y="0px"
	 width="149.667px" height="61px" viewBox="0 0 149.667 61" enable-background="new 0 0 149.667 61" xml:space="preserve">
<path fill="#FFFFFF" d="M38.072,14.767c-0.526-0.251-1.103-0.424-1.716-0.516c-0.562-0.083-1.083-0.125-1.549-0.125
	c-1.372,0-2.64,0.286-3.77,0.85c-0.787,0.394-1.506,0.86-2.146,1.391c-0.879-0.714-1.833-1.317-2.847-1.8
	c-1.351-0.644-3.075-0.956-5.27-0.956c-1.893,0-3.656,0.268-5.242,0.796c-1.604,0.535-2.998,1.302-4.142,2.279
	c-1.158,0.99-2.066,2.206-2.697,3.616c-0.628,1.403-0.946,2.976-0.946,4.676c0,2.518,0.635,4.57,1.886,6.102
	c0.642,0.787,1.416,1.485,2.314,2.09c-0.765,0.195-1.477,0.479-2.122,0.848c-0.802,0.458-1.456,1.066-1.944,1.809
	c-0.507,0.774-0.765,1.71-0.765,2.782c0,1.545,0.499,2.709,1.481,3.458c0.299,0.228,0.61,0.437,0.934,0.628
	c-0.114,0.087-0.227,0.178-0.338,0.271c-0.63,0.525-1.205,1.131-1.705,1.8c-0.521,0.693-0.937,1.49-1.235,2.367
	c-0.302,0.882-0.455,1.868-0.455,2.93c0,1.809,0.381,3.4,1.131,4.729c0.749,1.327,1.829,2.431,3.21,3.281
	c1.332,0.82,2.932,1.431,4.756,1.816c1.779,0.375,3.756,0.566,5.876,0.566c2.57,0,4.876-0.314,6.857-0.934
	c2-0.627,3.717-1.503,5.105-2.605c1.416-1.125,2.494-2.481,3.207-4.031c0.707-1.539,1.065-3.221,1.065-4.999
	c0-2.068-0.464-3.791-1.379-5.12c-0.905-1.315-2.215-2.349-3.894-3.072c-1.586-0.683-3.535-1.179-5.791-1.477
	c-2.181-0.287-4.687-0.529-7.519-0.724c-0.312,0-0.729-0.027-1.243-0.081c-0.512-0.053-1.025-0.142-1.53-0.264
	c-0.452-0.109-0.829-0.253-1.122-0.429c-0.036-0.022-0.062-0.04-0.078-0.048c0.016-0.03,0.057-0.068,0.167-0.125
	c0.383-0.199,0.871-0.349,1.451-0.445c0.642-0.107,1.317-0.18,2.006-0.217c0.704-0.037,1.279-0.056,1.724-0.056
	c1.7,0,3.326-0.248,4.833-0.736c1.524-0.494,2.894-1.227,4.071-2.177c1.197-0.966,2.154-2.168,2.846-3.572
	c0.695-1.412,1.048-3.054,1.047-4.922c-0.042-0.988-0.198-1.979-0.465-2.945c-0.211-0.761-0.517-1.497-0.913-2.197
	c0.166-0.146,0.364-0.276,0.597-0.393c0.474-0.237,0.927-0.353,1.385-0.353c0.12,0,0.2,0.01,0.249,0.019
	c0.11,0.234,0.208,0.479,0.292,0.728c0.147,0.444,0.371,0.868,0.663,1.257c0.433,0.578,1.163,0.859,2.232,0.859
	c1.344,0,2.298-0.41,2.837-1.219c0.453-0.681,0.683-1.455,0.683-2.301c0-0.811-0.222-1.489-0.661-2.015
	C39.122,15.408,38.643,15.041,38.072,14.767z M14.85,44.202c2.152,0.078,4.189,0.206,6.061,0.383
	c1.943,0.183,3.648,0.497,5.069,0.934c1.335,0.411,2.39,0.972,3.134,1.666c0.653,0.61,0.971,1.401,0.971,2.419
	c0,0.875-0.188,1.66-0.573,2.4c-0.396,0.759-0.933,1.429-1.594,1.991c-0.673,0.572-1.471,1.034-2.369,1.373
	c-1.955,0.737-4.309,0.616-6.424,0.029c-1.117-0.309-2.114-0.785-2.965-1.415c-0.836-0.619-1.524-1.4-2.043-2.322
	c-0.503-0.893-0.759-1.971-0.759-3.203c0-0.865,0.17-1.747,0.506-2.62C14.125,45.158,14.456,44.609,14.85,44.202z M18.224,18.267
	c0.57-0.395,1.371-0.595,2.38-0.595c0.795,0,1.433,0.15,1.897,0.445c0.482,0.307,0.863,0.742,1.165,1.331
	c0.327,0.638,0.553,1.424,0.672,2.335c0.127,0.985,0.192,2.098,0.192,3.308c0,2.271-0.377,3.993-1.123,5.118
	c-0.667,1.009-1.79,1.499-3.433,1.499c-1.357,0-2.313-0.479-3.009-1.508c-0.76-1.122-1.145-2.86-1.145-5.167
	c0-0.9,0.073-1.832,0.217-2.77c0.135-0.878,0.389-1.678,0.756-2.379C17.141,19.222,17.608,18.693,18.224,18.267z"/>
<path fill="#FFFFFF" d="M64.28,17.882c-0.94-1.273-2.115-2.311-3.495-3.085c-1.405-0.788-3.034-1.187-4.841-1.187
	c-2.172,0-4.041,0.498-5.555,1.478c-0.67,0.434-1.273,0.899-1.807,1.392V2.469l-0.014-0.164c-0.067-0.402-0.244-0.782-0.528-1.128
	c-0.284-0.346-0.936-0.747-2.118-0.41c-1.348,0.401-2.704,0.678-4.033,0.823c-1.379,0.151-2.628,0.266-3.643,0.338
	c-0.613,0-1.116,0.307-1.381,0.839c-0.182,0.365-0.254,0.743-0.215,1.117c0.03,0.313,0.122,0.625,0.271,0.921
	c0.255,0.512,0.709,0.815,1.253,0.839c0.891,0.104,1.573,0.24,2.025,0.401c0.288,0.103,0.476,0.273,0.61,0.552
	c0.128,0.267,0.29,0.808,0.331,1.866c0.038,0.989,0.057,2.306,0.057,3.914v28.826l0.666,0.236c1.893,0.671,3.664,1.103,5.263,1.283
	c1.556,0.175,3.039,0.264,4.407,0.264c2.045,0,4.021-0.316,5.875-0.94c1.876-0.632,3.554-1.606,4.988-2.896
	c1.44-1.296,2.594-2.957,3.431-4.936c0.831-1.967,1.252-4.305,1.252-6.947c0-1.727-0.235-3.419-0.698-5.03
	C65.914,20.603,65.206,19.138,64.28,17.882z M59.068,27.897c0,1.506-0.103,2.96-0.304,4.32c-0.194,1.304-0.539,2.468-1.025,3.458
	c-0.462,0.94-1.066,1.658-1.845,2.194c-0.742,0.51-1.708,0.769-2.87,0.769c-0.655,0-1.233-0.126-1.769-0.387
	c-0.583-0.283-1.085-0.608-1.494-0.968c-0.394-0.346-0.701-0.706-0.914-1.07c-0.216-0.37-0.259-0.531-0.264-0.531c0,0,0,0,0,0.001
	V23.659c0-0.226,0.069-0.626,0.399-1.25c0.285-0.538,0.691-1.04,1.207-1.491c0.533-0.466,1.183-0.876,1.931-1.216
	c0.706-0.321,1.492-0.483,2.335-0.483c0.966,0,1.735,0.198,2.284,0.588c0.585,0.416,1.03,0.969,1.359,1.69
	c0.357,0.783,0.609,1.718,0.749,2.778C58.994,25.398,59.068,26.617,59.068,27.897z"/>
<path fill="#FFFFFF" d="M92.687,17.235c-1.241-1.178-2.736-2.089-4.444-2.707c-1.686-0.609-3.544-0.918-5.523-0.918
	c-2.064,0-4,0.351-5.751,1.044c-1.76,0.696-3.288,1.674-4.543,2.908c-1.257,1.236-2.249,2.748-2.947,4.494
	c-0.694,1.732-1.045,3.659-1.045,5.727c0,2.514,0.348,4.739,1.034,6.614c0.694,1.897,1.652,3.498,2.849,4.756
	c1.204,1.267,2.656,2.235,4.315,2.878c1.637,0.634,3.435,0.955,5.344,0.955c2.171,0,4.178-0.339,5.964-1.009
	c1.811-0.679,3.387-1.693,4.685-3.012c1.298-1.319,2.31-2.963,3.005-4.886c0.686-1.896,1.033-4.091,1.033-6.525
	c0-2.219-0.352-4.214-1.047-5.931C94.917,19.894,93.931,18.417,92.687,17.235z M85.614,38.036c-0.735,0.551-1.747,0.831-3.008,0.831
	c-1.235,0-2.205-0.287-2.967-0.878c-0.808-0.625-1.452-1.431-1.917-2.394c-0.487-1.008-0.823-2.16-0.999-3.425
	c-0.183-1.318-0.276-2.621-0.276-3.872c0-1.435,0.102-2.829,0.304-4.145c0.191-1.261,0.544-2.401,1.048-3.392
	c0.479-0.943,1.112-1.673,1.933-2.232c0.781-0.531,1.844-0.8,3.16-0.8c1.149,0,2.086,0.262,2.784,0.777
	c0.738,0.546,1.327,1.285,1.75,2.194c0.452,0.976,0.771,2.113,0.947,3.382c0.184,1.324,0.277,2.703,0.277,4.101
	c0,1.365-0.084,2.741-0.25,4.087c-0.158,1.283-0.476,2.444-0.945,3.452C87.006,36.686,86.404,37.443,85.614,38.036z"/>
<path fill="#FFFFFF" d="M116.896,28.442c-0.695-0.736-1.523-1.384-2.461-1.926c-0.886-0.511-1.848-1.007-2.893-1.489
	c-0.465-0.193-1.074-0.436-1.83-0.727c-0.753-0.289-1.4-0.53-1.936-0.722c-1.174-0.426-2.117-0.887-2.805-1.369
	c-0.497-0.347-0.718-0.801-0.718-1.471c0-0.875,0.313-1.524,0.985-2.043c0.744-0.573,1.687-0.852,2.883-0.852
	c1.789,0,3.078,0.435,3.83,1.292c0.834,0.952,1.452,2.369,1.835,4.212l0.029,0.108c0.133,0.405,0.448,0.719,0.885,0.883
	c0.298,0.111,0.639,0.15,0.964,0.116c0.313-0.03,0.605-0.113,0.867-0.244c0.705-0.354,0.781-0.943,0.781-1.18
	c0-0.431-0.02-1.048-0.058-1.854c-0.038-0.765-0.057-1.503-0.057-2.213c0-0.634,0.044-1.237,0.131-1.793
	c0.088-0.567,0.187-1.051,0.277-1.388c0.162-0.491,0.018-1.142-0.677-1.494c-0.259-0.129-0.548-0.21-0.861-0.243
	c-0.29-0.03-0.575-0.015-0.87,0.043c-0.569,0.115-0.986,0.499-1.107,0.993c-0.021,0.071-0.04,0.13-0.058,0.18
	c-0.931-0.576-1.809-0.991-2.615-1.235c-1.837-0.553-4.309-0.55-6.73,0.013c-1.249,0.292-2.402,0.769-3.428,1.417
	c-1.06,0.671-1.937,1.558-2.606,2.638c-0.689,1.11-1.038,2.463-1.038,4.021c0,1.329,0.226,2.476,0.67,3.408
	c0.44,0.926,1.037,1.713,1.773,2.337c0.7,0.594,1.514,1.099,2.419,1.499c0.83,0.367,1.668,0.723,2.525,1.074
	c0.569,0.228,1.128,0.455,1.678,0.682c0.549,0.228,1.089,0.455,1.592,0.67c1.065,0.497,2.005,1.078,2.794,1.727
	c0.631,0.519,0.924,1.193,0.924,2.121c0,1.085-0.312,1.89-0.953,2.46c-0.675,0.601-1.554,0.893-2.686,0.893
	c-1.151,0-2.138-0.128-2.932-0.382c-0.754-0.241-1.401-0.603-1.921-1.076c-0.536-0.488-0.992-1.102-1.354-1.827
	c-0.385-0.768-0.705-1.679-0.956-2.719c-0.123-0.481-0.475-0.852-0.969-1.018c-0.303-0.101-0.609-0.138-0.961-0.103
	c-0.31,0.031-0.599,0.113-0.865,0.245c-0.487,0.246-0.778,0.708-0.778,1.236c0,0.21,0.019,0.546,0.061,1.005
	c0.038,0.426,0.087,0.909,0.146,1.449l0.171,1.63c0.053,0.514,0.081,0.99,0.081,1.414c0,0.409-0.035,0.862-0.104,1.346
	c-0.084,0.583-0.125,1.042-0.125,1.403c0,0.417,0.23,0.95,0.878,1.194c0.516,0.193,1.061,0.179,1.57,0.068
	c0.69-0.153,0.981-0.641,1.033-1.065c0.009-0.042,0.018-0.077,0.026-0.102c0.932,0.402,2.009,0.72,3.208,0.944
	c1.277,0.239,2.457,0.361,3.506,0.361c1.246,0,2.532-0.143,3.821-0.424c1.326-0.29,2.53-0.766,3.579-1.416
	c1.081-0.67,1.978-1.567,2.668-2.667c0.709-1.131,1.069-2.534,1.069-4.168c0-1.238-0.21-2.354-0.626-3.318
	C118.167,30.049,117.602,29.191,116.896,28.442z"/>
<path fill="#FFFFFF" d="M147.265,37.823c-0.178-0.248-0.398-0.449-0.662-0.602c-0.458-0.26-1.022-0.228-1.391,0.019
	c-0.567,0.35-0.843,0.47-0.958,0.511c-0.108,0.039-0.316,0.084-0.694,0.084c-0.45,0-0.515-0.139-0.554-0.224
	c-0.104-0.224-0.279-0.831-0.279-2.384V23.773c0-3.585-1.012-6.217-3.008-7.823c-1.931-1.553-4.569-2.34-7.842-2.34
	c-1.426,0-2.812,0.197-4.123,0.585c-1.311,0.39-2.48,0.923-3.477,1.587c-1.033,0.689-1.864,1.533-2.47,2.508
	c-0.632,1.015-0.953,2.108-0.953,3.249c0,1.03,0.294,1.924,0.875,2.654c0.636,0.803,1.642,1.21,2.989,1.21
	c1.02,0,1.904-0.34,2.627-1.012c0.744-0.69,1.122-1.457,1.122-2.279c0-0.619-0.191-1.22-0.569-1.787
	c-0.156-0.234-0.232-0.456-0.232-0.676c0-0.356,0.097-0.827,0.85-1.302c0.713-0.449,1.69-0.677,2.903-0.677
	c0.776,0,1.422,0.141,1.917,0.417c0.494,0.276,0.867,0.642,1.14,1.115c0.303,0.528,0.524,1.162,0.656,1.885
	c0.141,0.78,0.213,1.625,0.213,2.514v1.546c0,0.255-0.003,0.455-0.007,0.61c-4.668,0.078-8.329,0.861-10.888,2.331
	c-2.879,1.655-4.339,4.076-4.339,7.196c0,2.406,0.698,4.313,2.074,5.667c1.371,1.35,3.302,2.034,5.742,2.034
	c2.113,0,3.914-0.317,5.353-0.942c1.09-0.474,2.089-1.055,3.001-1.75c0.41,0.595,0.93,1.132,1.553,1.602
	c0.956,0.724,2.113,1.09,3.438,1.09c2.327,0,4.359-1.027,5.975-2.983c0.356-0.354,0.497-0.847,0.385-1.356
	C147.562,38.346,147.44,38.07,147.265,37.823z M129.614,31.438c1.239-0.862,3.164-1.442,5.73-1.728l0.001,6.077
	c-0.005,0.021-0.045,0.101-0.107,0.168c-0.666,0.566-1.437,1.006-2.291,1.308c-0.862,0.304-1.685,0.458-2.445,0.458
	c-1.008,0-1.68-0.25-2.057-0.765c-0.448-0.612-0.666-1.365-0.666-2.301C127.78,33.35,128.38,32.297,129.614,31.438z"/>
<path fill="#FFFFFF" d="M85.625,25.323c-0.805-0.855-1.84-1.288-3.076-1.288c-1.149,0-2.158,0.426-2.998,1.267
	s-1.267,1.849-1.267,2.998c0,1.149,0.426,2.158,1.267,2.998c0.84,0.84,1.849,1.267,2.998,1.267c1.236,0,2.271-0.433,3.077-1.289
	c0.788-0.838,1.188-1.839,1.188-2.976C86.813,27.163,86.414,26.162,85.625,25.323z"/>
</svg>
