<svg xmlns="http://www.w3.org/2000/svg" width="400" height="400">
  <path fill="#5FA7DA" d="M864 36c-108.25 0-196 87.75-196 196s87.75 196 196 196 196-87.75 196-196S972.25 36 864 36zm144.13 114.73c-2.69 3.62-5.39 7.21-8.56 10.44a155.5 155.5 0 0 1-12.46 11.61c-2.7 2.22-4.35 5.04-4.46 8.61-.13 4.24-.31 8.47-.61 12.7a145.6 145.6 0 0 1-1.48 12.85 173.8 173.8 0 0 1-6.14 25.6 163.6 163.6 0 0 1-19.44 40.8 144.95 144.95 0 0 1-15.55 19.96 182.35 182.35 0 0 1-10.85 10.85 160.74 160.74 0 0 1-16.57 12.91c-5.49 3.74-11.37 6.81-17.26 9.84-7.17 3.68-14.72 6.4-22.38 8.84-8.76 2.8-17.72 4.6-26.85 5.64-3.98.45-7.98.8-11.97 1.23-.7.08-1.44 0-2.1.38l-5.54.02c-3.44 0-6.88-.02-10.31-.04-.36-.29-.8-.18-1.2-.2-1.48-.13-2.95-.17-4.42-.35a665.4 665.4 0 0 1-11.02-1.46 119.8 119.8 0 0 1-13.3-2.4 199.45 199.45 0 0 1-20.5-6.7 173.17 173.17 0 0 1-23.95-11.48c-1.31-.74-2.57-1.58-3.85-2.38v-.22c3.3.41 6.64.55 9.96.65a109.8 109.8 0 0 0 18.25-.97c5.03-.68 9.97-1.83 14.88-3.1a114.1 114.1 0 0 0 25.57-10.25c4.36-2.37 8.37-5.34 12.47-8.13l.83-.59c.2-.14.33-.32.27-.57-.06-.23-.28-.2-.46-.23l-.68-.03c-1.51-.1-3.03-.16-4.53-.33a43.02 43.02 0 0 1-10.67-2.63c-8.6-3.28-16.45-7.69-22.68-14.66a58.75 58.75 0 0 1-7.07-9.3c-2.02-3.45-3.56-7.1-5.2-10.73-.12-.27-.28-.55-.11-1.02 3.97.52 7.99.8 12.04.62 4.06-.18 8.13-.26 12.09-1.47-.15-.35-.38-.4-.6-.44-3.03-.6-5.85-1.8-8.67-3.02-3.38-1.44-6.77-2.9-9.8-5.02-12.22-8.56-20.05-20.1-23.42-34.66a60.6 60.6 0 0 1-1.33-10.12c-.05-.78-.36-1.56-.12-2.34.45-.14.75.15 1.08.3 2 .91 3.97 1.9 6.04 2.65 4.64 1.71 9.48 2.62 14.32 3.48.99.18 2 .1 3.03.05-.05-.2-.05-.29-.1-.33a1.9 1.9 0 0 0-.33-.29 39.61 39.61 0 0 1-8.52-7.46c-3.87-4.36-7.23-9.02-9.61-14.39-2.95-6.69-4.88-13.61-5.28-20.92a52.37 52.37 0 0 1 1.8-17.21c1.32-4.61 3.39-8.92 5.28-13.29l.1-.21c.15-.26.36-.27.54-.06.27.31.5.67.77.98 4.49 5.09 9.17 9.99 14.05 14.71.84.82 1.88 1.43 2.67 2.28a55.93 55.93 0 0 0 5.94 5.28 169.81 169.81 0 0 0 26.3 17.02c6.98 3.7 14.27 6.67 21.69 9.33 4.14 1.48 8.26 2.98 12.58 3.91 6.4 1.36 12.83 2.59 19.3 3.55 3.34.49 6.69.88 10.06.98 1.93.06 1.6.1 1.32-1.57a64.82 64.82 0 0 1-.65-15.62c.31-4.72 1.4-9.26 2.85-13.75 3.06-9.4 8.55-17.16 15.9-23.65 4.64-4.09 9.93-7.09 15.55-9.53a48.51 48.51 0 0 1 12.83-3.75c.68-.1 1.45-.04 2.03-.58h12.73c.34.36.82.35 1.25.44 1.63.33 3.28.61 4.9.99a57.47 57.47 0 0 1 25.7 13.63 6.22 6.22 0 0 0 3.2 1.61c1.59.28 3.1-.03 4.6-.39 6.95-1.68 13.6-4.18 20.12-7.09 3.1-1.39 6.26-2.72 9.16-4.54.24-.14.45-.41.8-.33.18.31 0 .59-.08.87a42.16 42.16 0 0 1-2.57 6.17c-4.68 9.15-11.06 16.78-19.62 22.55-.27.18-.61.3-.65.77.49.11.96.07 1.43-.04l6.44-1.38a149.81 149.81 0 0 0 21.74-6.54 2 2 0 0 1 1.1-.12v.22c-.91.66-1.39 1.68-2.04 2.56z"/>
  <path fill="#3B5A9D" d="M596 290c-108.25 0-196 87.75-196 196s87.75 196 196 196 196-87.75 196-196-87.75-196-196-196zm75.12 99.56l-.81.01-26.49.06c-2.49 0-4.95.13-7.41.5a29.4 29.4 0 0 0-6.38 1.67 16.29 16.29 0 0 0-9.49 9.3 26.11 26.11 0 0 0-1.57 6.02 54.78 54.78 0 0 0-.49 7.8v32.17c0 .32.16.45.46.45l.75.01 48.63.01.98.03-.26 2.22-.82 6.31-.8 6.25-.82 6.31-.8 6.26-.95 7.3c-.31 2.41-.6 4.83-.92 7.24-.35 2.75-.72 5.5-1.08 8.23-.13 1-.1 1-1.13 1h-41.94c-.23 0-.46-.02-.69 0-.18.01-.35.05-.6.1v131.07c-.02.16-.06.32-.07.45-.09.04-.12.07-.16.07-.1.02-.21.03-.31.03h-51.81c-.1 0-.2-.02-.31-.04-.02 0-.04 0-.06-.03l-.12-.12V500.03v-.75a4.15 4.15 0 0 0-.08-.53c-.38-.02-.72-.04-1.07-.04h-42.38l-1-.02v-51.13l1-.01H565c.2-.01.39-.05.66-.09v-.98c0-12.94-.02-25.88.02-38.81.01-2.48.19-4.96.39-7.42.24-2.82.66-5.62 1.21-8.4a68.94 68.94 0 0 1 5.4-16.64 55.15 55.15 0 0 1 16.62-20.61c8.76-6.63 18.72-10.27 29.5-11.87 1.52-.22 3.05-.38 4.58-.52 1.56-.15 3.12-.32 4.67-.33 4.37-.02 8.75.03 13.12.08 2.23.02 4.46.1 6.68.16 1.05.03 2.1.08 3.12.14 1.92.1 3.83.22 5.74.34 1.51.09 3.03.16 4.54.28 1.77.13 3.53.3 5.3.47 1.52.14 3.05.31 4.57.46v45.75z"/>
  <path d="M-122.1 400h8.83c.52.06 1.03.16 1.55.17 6.73.16 13.42.73 20.1 1.6 8.99 1.19 17.87 2.96 26.6 5.43 35.4 9.99 65.72 28.4 90.85 55.24a193.82 193.82 0 0 1 44.78 78.19 189.9 189.9 0 0 1 6.82 33.98c.17 1.51.4 3.02.6 4.53v34.3c-.07.25-.18.5-.2.75a191.52 191.52 0 0 1-3.54 23.38 193.24 193.24 0 0 1-21.86 56.81A195.57 195.57 0 0 1 5.4 749.26a194.93 194.93 0 0 1-67.05 35.26c-9.42 2.81-19 4.92-28.74 6.2-4.45.59-8.95 1.1-13.44 1.18-9.37.18-18.74.06-28.12.05-1.14 0-2.28-.06-3.42-.16-8.07-.66-16.06-1.9-23.96-3.61a193.17 193.17 0 0 1-60.03-23.97c-27.87-17.01-50.27-39.5-66.98-67.57-17.24-28.95-26.34-60.32-27.44-94-.02-.58-.13-1.16-.2-1.74v-9.21c.07-.48.16-.96.2-1.44.27-4.27.47-8.54.8-12.8a168.7 168.7 0 0 1 3.02-20.5 193.23 193.23 0 0 1 20.75-55.97 195.44 195.44 0 0 1 65.9-70.04 192.75 192.75 0 0 1 74.56-28.4 190.7 190.7 0 0 1 24.62-2.35c.68-.02 1.36-.12 2.04-.19zm-42.76 186.5v1.05c0 8.5.02 16.99-.01 25.48 0 .99.34 1.2 1.23 1.21 3.4.02 6.8.14 10.19.17 11.27.1 22.54.17 33.8.26h1.07c-.02.26 0 .4-.04.52-.38 1.14-.73 2.3-1.16 3.42-4.84 12.47-12.68 22.02-25.57 26.95-8.73 3.33-17.6 4.38-26.78 2.76a52.26 52.26 0 0 1-27.05-13.4c-6.18-5.73-10.35-12.71-13.03-20.72a49.51 49.51 0 0 1-1.8-25.73c3.45-17.72 16.73-34 34.92-39.38a46.72 46.72 0 0 1 25.26-.56c7.75 1.96 14.87 5.39 21.69 9.48.68.4 1.09.41 1.66-.17 4.37-4.46 8.8-8.86 13.14-13.33 2.28-2.33 4.44-4.78 6.65-7.17-.1-.15-.13-.24-.2-.3a89.26 89.26 0 0 0-25.78-15.14 71 71 0 0 0-21.98-4.73c-3.42-.14-6.85-.03-10.28.04a71.53 71.53 0 0 0-19.35 3.02 79.34 79.34 0 0 0-35.1 21.83c-12.58 13.3-20.34 28.91-22.05 47.3a89.71 89.71 0 0 0 .47 20.62 75 75 0 0 0 7.03 22.88c7.84 15.98 19.45 28.4 35.17 36.85 9.3 5 19.3 7.78 29.78 8.88 6.79.72 13.56.62 20.31-.28a78.58 78.58 0 0 0 23.29-6.73c19.38-9.15 32-24.14 38.3-44.53a95.06 95.06 0 0 0 3.75-20.53c.5-6.2.44-12.4.14-18.6-.06-1.35-.07-1.35-1.47-1.36-5.9-.04-11.82-.12-17.73-.12-19.04-.02-38.09-.01-57.13 0-.42 0-.83.04-1.34.07zm150.85 23.3h1.9c6.73-.02 13.46-.06 20.19-.03.96 0 1.2-.3 1.19-1.23-.04-6.95-.02-13.91-.02-20.87 0-.34-.04-.7-.07-1.23h-23.06v-1.17c-.05-6.98-.13-13.97-.15-20.96 0-.88-.26-1.1-1.1-1.09-6.96.03-13.92.04-20.88 0-1.01-.01-1.24.3-1.25 1.27-.01 6.85-.1 13.71-.15 20.57 0 .41-.04.82-.07 1.4h-22.96c-.04.46-.09.74-.09 1.03 0 7.09.01 14.17-.02 21.26 0 .88.37 1 1.11 1 6.96.03 13.92.1 20.87.12.85 0 1.18.2 1.18 1.14.01 6.89.08 13.78.14 20.67v1.24c.4.03.72.09 1.04.09 7.06 0 14.1-.01 21.16.02.86 0 1.02-.32 1.01-1.1-.02-3.45.02-6.92.03-10.38v-11.76z"/>
  <path fill="#FFF" fill-rule="evenodd" d="M-313.98 600.9c.07.58.18 1.16.2 1.74 1.1 33.68 10.2 65.05 27.44 94 16.71 28.06 39.1 50.56 66.98 67.57a193.17 193.17 0 0 0 60.02 23.97c7.91 1.72 15.9 2.95 23.97 3.61 1.14.1 2.28.15 3.42.16 9.37 0 18.75.13 28.12-.05 4.49-.09 8.98-.6 13.44-1.18A194.93 194.93 0 0 0 5.4 749.26a195.55 195.55 0 0 0 47.03-54.88 193.23 193.23 0 0 0 21.86-56.8 191.32 191.32 0 0 0 3.53-23.4c.02-.25.13-.49.2-.74v178.74h-392V600.9z" clip-rule="evenodd"/>
  <path fill="#FFF" fill-rule="evenodd" d="M-164.86 586.5c.5-.02.92-.07 1.34-.07h57.13c5.9.01 11.82.09 17.73.13 1.4 0 1.4 0 1.47 1.36.3 6.2.36 12.4-.14 18.6a95.05 95.05 0 0 1-3.75 20.53c-6.3 20.4-18.93 35.38-38.3 44.53a78.62 78.62 0 0 1-23.29 6.73c-6.75.9-13.52 1-20.31.28-10.49-1.1-20.48-3.88-29.78-8.88-15.72-8.44-27.33-20.87-35.17-36.85a75 75 0 0 1-7.03-22.88 89.71 89.71 0 0 1-.47-20.61c1.71-18.4 9.47-34.01 22.06-47.31a79.33 79.33 0 0 1 35.09-21.83 71.49 71.49 0 0 1 19.35-3.02c3.43-.07 6.86-.18 10.28-.04 7.58.32 14.88 2.07 21.97 4.72a89.26 89.26 0 0 1 25.79 15.14c.06.07.1.16.2.31-2.2 2.4-4.37 4.84-6.65 7.17-4.35 4.47-8.77 8.87-13.14 13.33-.57.58-.98.57-1.66.17-6.82-4.1-13.94-7.52-21.7-9.48a46.7 46.7 0 0 0-25.25.56c-18.19 5.38-31.47 21.66-34.93 39.38a49.52 49.52 0 0 0 1.8 25.73c2.7 8 6.85 14.99 13.04 20.73a52.26 52.26 0 0 0 27.05 13.4c9.18 1.6 18.04.56 26.78-2.77 12.89-4.93 20.73-14.48 25.57-26.95.43-1.12.78-2.28 1.16-3.42.04-.12.02-.26.04-.52h-1.07c-11.27-.09-22.53-.16-33.8-.26-3.4-.03-6.8-.15-10.19-.17-.9 0-1.24-.22-1.23-1.2.03-8.5.01-17 0-25.49v-1.04zM-14.01 609.8v11.75c0 3.46-.05 6.93-.03 10.39 0 .77-.15 1.1-1 1.09-7.06-.03-14.12-.02-21.17-.02-.32 0-.63-.05-1.05-.1v-1.23c-.05-6.89-.12-13.78-.13-20.67 0-.94-.33-1.14-1.18-1.14-6.95-.02-13.91-.09-20.87-.11-.74 0-1.11-.13-1.11-1 .03-7.1.02-14.18.02-21.27 0-.28.05-.57.1-1.02h22.95l.07-1.4c.06-6.86.14-13.72.15-20.58 0-.97.24-1.28 1.25-1.27 6.96.04 13.92.04 20.87 0 .86 0 1.1.21 1.1 1.09.03 6.99.1 13.98.16 20.97v1.16H9.18c.03.54.07.89.07 1.23 0 6.96-.02 13.92.02 20.88 0 .92-.23 1.22-1.2 1.22-6.72-.03-13.45.01-20.18.02H-14z" clip-rule="evenodd"/>
  <path fill="#DD4F42" d="M200 4C91.75 4 4 91.75 4 200s87.75 196 196 196 196-87.75 196-196S308.25 4 200 4zm30.84 206.71a94.8 94.8 0 0 1-3.75 20.54c-6.3 20.39-18.92 35.38-38.3 44.52a78.62 78.62 0 0 1-23.29 6.73c-6.75.9-13.52 1-20.31.29-10.49-1.1-20.48-3.88-29.78-8.88-15.72-8.45-27.33-20.87-35.17-36.85a74.8 74.8 0 0 1-7.03-22.9 89.93 89.93 0 0 1-.47-20.6c1.71-18.4 9.47-34.01 22.06-47.31a79.36 79.36 0 0 1 35.09-21.82 70.96 70.96 0 0 1 19.35-3.02c3.43-.08 6.86-.2 10.28-.04a70.91 70.91 0 0 1 21.98 4.72 89.23 89.23 0 0 1 25.19 14.62l.59.52c.07.06.1.16.2.3-2.21 2.4-4.37 4.84-6.64 7.18-4.36 4.47-8.78 8.86-13.15 13.32-.57.58-.98.58-1.66.17-6.82-4.1-13.94-7.52-21.7-9.48a46.7 46.7 0 0 0-25.24.56c-18.2 5.38-31.48 21.67-34.94 39.38a49.5 49.5 0 0 0 1.8 25.73c2.69 8 6.86 14.99 13.04 20.73a52.33 52.33 0 0 0 27.05 13.4c9.19 1.6 18.05.56 26.78-2.77 12.89-4.92 20.73-14.48 25.57-26.95.44-1.12.78-2.28 1.16-3.42.04-.12.02-.25.04-.52h-1.06c-11.27-.08-22.54-.16-33.81-.26-3.4-.03-6.8-.14-10.2-.16-.88-.01-1.22-.23-1.22-1.21.04-8.5 0-17 0-25.48v-1.05c.52-.03.93-.07 1.35-.07 19.04-.01 38.09-.02 57.13 0 5.9 0 11.82.08 17.73.12 1.4 0 1.4 0 1.47 1.37.3 6.2.36 12.39-.14 18.59zm95.41 3.25c-6.73-.02-13.46.01-20.19.03h-1.9v11.76c0 3.46-.05 6.92-.03 10.38.01.77-.15 1.1-1 1.09-7.06-.03-14.11-.01-21.17-.02-.32 0-.63-.05-1.04-.09v-1.23c-.06-6.9-.13-13.79-.14-20.68 0-.94-.33-1.13-1.18-1.13-6.95-.03-13.9-.09-20.87-.12-.74 0-1.1-.12-1.1-1 .02-7.09.01-14.18.01-21.26 0-.29.05-.57.1-1.03h22.95c.03-.58.06-.99.07-1.4.06-6.86.14-13.72.16-20.58 0-.96.23-1.28 1.25-1.27 6.95.05 13.91.04 20.87.01.85-.01 1.1.2 1.1 1.08.02 6.99.1 13.98.15 20.97v1.16h23.06c.03.54.07.89.07 1.24 0 6.95-.02 13.91.02 20.87 0 .93-.23 1.22-1.19 1.22z"/>
</svg>
