<svg xmlns="http://www.w3.org/2000/svg" viewBox="-15 -15 125 125">
  <path d="M96.1 16.82a7.77 7.77 0 0 0-7.34 2.3c-.42-.85-1-1.62-1.68-2.26 1.58-3 4.34-6.14 8.95-6.45 7.17-.48 1.82-15.43-7.53-7.53-3.89 3.28-5.24 8.07-5.64 11.9a7.98 7.98 0 0 0-4.9.75 39.79 39.79 0 0 0-57.73-6.35 39.6 39.6 0 0 1 3.76-1c1.83-.4 3.65-.66 5.4-.83A56.8 56.8 0 0 1 48.05 8.8s-3.66-.56-9.13-.34c-2.72.13-5.9.44-9.18 1.17-1.64.37-3.3.82-4.95 1.4a34.85 34.85 0 0 0-4.81 2.07c-1.56.8-3 1.74-4.35 2.75-.69.49-1.3 1.06-1.93 1.58-.58.57-1.16 1.13-1.7 1.7-.19.2-.34.41-.52.61a39.66 39.66 0 0 0-5.22 19.72v16.2h.1a306.59 306.59 0 0 0 .02 1.87c.01.2.04.36.06.58.06.41.04.82.2 1.47.12.61.21 1.3.44 2.05l.31 1.17.44 1.26c.6 1.74 1.47 3.68 2.6 5.73a48.4 48.4 0 0 0 4.2 6.37 56.12 56.12 0 0 0 15.14 13.49l.1.02c1 .27 2.04.55 3.16.74 2.2.49 4.62.84 7.17 1.1 2.56.2 5.26.3 8.02.08l2.08-.15 2.08-.31c1.41-.16 2.79-.56 4.19-.85a44.54 44.54 0 0 0 8.05-3.03 44 44 0 0 0 7.17-4.58 46.53 46.53 0 0 0 5.86-5.69 46.67 46.67 0 0 0 4.4-6.19 45.71 45.71 0 0 0 2.98-6.05c.34-.9.65-1.77.92-2.62V39.47c0-3.25-.4-6.39-1.13-9.4a8.04 8.04 0 0 0 4.76-6.58c1.63-.41 4.63-.86 7.24.36 3.8 1.79 5.83-5.83-.72-7.03zM76.24 53.16a16.76 16.76 0 0 1-22.77 6.58c-4.88-2.7-11.5-1.96-15.51.16a16.76 16.76 0 0 1-15.61-29.67c14.63-7.7 33.2-7.64 47.32.15a16.76 16.76 0 0 1 6.57 22.78z"/>
  <path d="M22.29 38.4l6.98 3c-3.17.61-5.48 2.47-5.48 4.66 0 2.68 3.46 4.86 7.72 4.86 4.27 0 7.72-2.18 7.72-4.86l-.02-.38 4.26 1.84s-6.64-9.84-21.18-9.12zM49.9 47.52l3.08-1.33c.12 2.62 3.52 4.73 7.71 4.73 4.27 0 7.72-2.18 7.72-4.86 0-2.01-1.94-3.74-4.7-4.48l7.38-3.17c-14.54-.73-21.19 9.1-21.19 9.1zM75.28 87.61a49.62 49.62 0 0 1-8.64 4.32 49.1 49.1 0 0 1-9.25 2.42c-1.56.16-3.1.43-4.63.44l-2.27.1-2.23-.07a55 55 0 0 1-12.03-1.81 58.31 58.31 0 0 0 9.15 3.08c3.14.71 6.3 1.25 9.38 1.4l2.3.15 2.27-.01c1.5.03 2.95-.1 4.38-.21 1.43-.06 2.8-.31 4.14-.48 1.35-.15 2.62-.44 3.85-.7 2.48-.44 4.67-1.17 6.65-1.68l2.94-1c2.8-1.52 4.58-3.6 4.65-6.87h.01V78.39a49.15 49.15 0 0 1-10.67 9.22zM34.58 97.06a62.74 62.74 0 0 1-9.57-4.3 63.64 63.64 0 0 1-8.48-5.7A62.66 62.66 0 0 1 9.5 80.5a71.2 71.2 0 0 1-3.24-3.88v10.07c.1 4.69 3.93 7.08 8.74 8.56 0 0 9.73 4.21 29.95 4.37l-.26-.03a62.4 62.4 0 0 1-10.11-2.53z"/>
</svg>
