<svg xmlns="http://www.w3.org/2000/svg" width="400" height="400">
  <path fill="#5FA7DA" d="M200 4C91.75 4 4 91.75 4 200s87.75 196 196 196 196-87.75 196-196S308.25 4 200 4zm144.13 114.73c-2.69 3.62-5.39 7.21-8.56 10.44a155.5 155.5 0 0 1-12.46 11.61c-2.7 2.22-4.35 5.04-4.46 8.61-.13 4.24-.31 8.47-.61 12.7a145.6 145.6 0 0 1-1.48 12.85 173.82 173.82 0 0 1-6.14 25.6 163.6 163.6 0 0 1-19.44 40.8 144.95 144.95 0 0 1-15.55 19.96 182.35 182.35 0 0 1-10.85 10.85 160.74 160.74 0 0 1-16.57 12.91c-5.49 3.74-11.37 6.81-17.26 9.84-7.17 3.68-14.72 6.4-22.38 8.84-8.76 2.8-17.72 4.6-26.85 5.64-3.98.45-7.98.8-11.97 1.23-.69.08-1.44 0-2.09.38l-5.55.02c-3.44 0-6.88-.02-10.31-.04-.36-.29-.8-.18-1.2-.2-1.48-.13-2.95-.17-4.42-.35-3.68-.46-7.35-.94-11.02-1.46a119.8 119.8 0 0 1-13.29-2.4 199.45 199.45 0 0 1-20.5-6.7 173.22 173.22 0 0 1-23.96-11.48c-1.31-.74-2.57-1.58-3.85-2.38v-.22c3.31.41 6.64.55 9.96.65a109.8 109.8 0 0 0 18.25-.97c5.03-.68 9.97-1.83 14.88-3.1a114.13 114.13 0 0 0 25.57-10.25c4.36-2.37 8.37-5.34 12.47-8.13l.83-.59c.2-.14.33-.32.27-.57-.06-.23-.28-.2-.46-.23l-.68-.03c-1.51-.1-3.03-.16-4.53-.33a43.02 43.02 0 0 1-10.67-2.63c-8.6-3.28-16.45-7.69-22.68-14.66a58.75 58.75 0 0 1-7.07-9.3c-2.02-3.45-3.56-7.1-5.2-10.73-.12-.27-.28-.55-.11-1.02 3.97.52 7.99.8 12.04.62 4.06-.18 8.13-.26 12.09-1.47-.15-.35-.38-.4-.59-.44-3.04-.6-5.86-1.81-8.68-3.02-3.38-1.44-6.77-2.9-9.8-5.02-12.22-8.56-20.05-20.1-23.42-34.66a60.58 60.58 0 0 1-1.33-10.12c-.05-.78-.36-1.56-.12-2.34.45-.14.75.15 1.08.3 2 .91 3.97 1.89 6.04 2.65 4.64 1.71 9.48 2.62 14.32 3.48.99.18 2 .1 3.03.05-.05-.2-.05-.29-.09-.33-.1-.11-.22-.21-.34-.29a39.61 39.61 0 0 1-8.52-7.46c-3.87-4.36-7.23-9.02-9.61-14.39-2.95-6.69-4.88-13.61-5.28-20.92a52.37 52.37 0 0 1 1.81-17.21c1.31-4.61 3.38-8.92 5.27-13.29a2 2 0 0 1 .1-.21c.15-.26.36-.27.54-.06.27.31.5.67.77.98 4.49 5.09 9.17 9.99 14.05 14.71.84.82 1.88 1.43 2.67 2.28a56.04 56.04 0 0 0 5.94 5.28 169.81 169.81 0 0 0 26.3 17.02c6.98 3.7 14.27 6.67 21.69 9.33 4.14 1.48 8.26 2.98 12.58 3.91a315.1 315.1 0 0 0 19.31 3.55c3.33.49 6.68.88 10.05.98 1.93.06 1.61.1 1.32-1.57a64.82 64.82 0 0 1-.65-15.62c.31-4.72 1.4-9.26 2.85-13.75 3.06-9.4 8.55-17.16 15.91-23.65 4.63-4.09 9.92-7.09 15.54-9.53a48.51 48.51 0 0 1 12.83-3.75c.68-.1 1.45-.04 2.03-.58h12.73c.34.36.82.35 1.25.44 1.63.33 3.28.61 4.9.99a57.47 57.47 0 0 1 25.7 13.63 6.22 6.22 0 0 0 3.2 1.61c1.59.28 3.1-.03 4.6-.39 6.95-1.68 13.61-4.18 20.12-7.09 3.1-1.39 6.26-2.72 9.16-4.54.24-.14.45-.41.8-.33.18.31 0 .59-.08.87a42.16 42.16 0 0 1-2.57 6.17c-4.68 9.15-11.06 16.78-19.62 22.55-.27.18-.61.3-.65.77.49.11.96.07 1.43-.04l6.44-1.38a149.81 149.81 0 0 0 21.74-6.54 2 2 0 0 1 1.1-.12v.22c-.91.66-1.39 1.68-2.04 2.56z"/>
  <circle cx="-215.64" cy="241.5" r="196" fill="#5FA7DA"/>
</svg>
